<?xml version="1.0" encoding="utf-8"?>
<!-- Generator: Adobe Illustrator 19.2.1, SVG Export Plug-In . SVG Version: 6.00 Build 0)  -->
<svg version="1.1" id="Layer_1" xmlns="http://www.w3.org/2000/svg" xmlns:xlink="http://www.w3.org/1999/xlink" x="0px" y="0px"
	 viewBox="0 0 184.2 160.3" style="enable-background:new 0 0 184.2 160.3;" xml:space="preserve">
<style type="text/css">
	.st0{fill:#FFFFFF;}
</style>
<g>
	<g>
		<path class="st0" d="M30.6-275H4.5c-0.1,0-0.2-0.1-0.2-0.2c0-0.1,0.1-0.2,0.2-0.2h26.1c0.1,0,0.2,0.1,0.2,0.2
			C30.8-275.1,30.7-275,30.6-275z"/>
		<circle class="st0" cx="20.5" cy="-275.2" r="1.1"/>
		<circle class="st0" cx="23.8" cy="-299.9" r="1.1"/>
		<path class="st0" d="M87.5-264.9c-0.1,0-0.2,0-0.2-0.1c0-0.1,0-0.2,0.1-0.3l26.7-10.2c0.1,0,0.2,0,0.3,0.1c0,0.1,0,0.2-0.1,0.3
			L87.5-264.9C87.6-264.9,87.6-264.9,87.5-264.9z"/>
		<circle class="st0" cx="100.9" cy="-270.2" r="1.1"/>
		<circle class="st0" cx="134.5" cy="-276.4" r="1.1"/>
		<circle class="st0" cx="141.5" cy="-269.1" r="1.1"/>
		<path class="st0" d="M182.2-264.9h-24.7c-0.1,0-0.2-0.1-0.2-0.2c0-0.1,0.1-0.2,0.2-0.2h24.7c0.1,0,0.2,0.1,0.2,0.2
			C182.4-265,182.3-264.9,182.2-264.9z"/>
		<circle class="st0" cx="166.2" cy="-275.4" r="1.1"/>
		<circle class="st0" cx="60.6" cy="-277.1" r="1.1"/>
		<circle class="st0" cx="70.2" cy="-274.5" r="1.1"/>
		<g>
			<path class="st0" d="M30.6-292.8c-0.1,0-0.1,0-0.1-0.1L20.3-303c-0.1-0.1-0.1-0.2,0-0.3c0.1-0.1,0.2-0.1,0.3,0l10.1,10.1
				c0.1,0.1,0.1,0.2,0,0.3C30.7-292.8,30.6-292.8,30.6-292.8z"/>
			<path class="st0" d="M2-283.8c0,0-0.1,0-0.1-0.1c-0.1-0.1-0.1-0.2,0-0.3l18.5-19.1c0.1-0.1,0.2-0.1,0.3,0c0.1,0.1,0.1,0.2,0,0.3
				L2.2-283.9C2.1-283.8,2.1-283.8,2-283.8z"/>
			<path class="st0" d="M20.5-264.9c-0.1,0-0.2-0.1-0.2-0.2v-38c0-0.1,0.1-0.2,0.2-0.2c0.1,0,0.2,0.1,0.2,0.2v38
				C20.7-265,20.6-264.9,20.5-264.9z"/>
			<path class="st0" d="M20.5-275C20.4-275,20.4-275,20.5-275l-18.5-8.8c-0.1,0-0.1-0.2-0.1-0.3c0-0.1,0.2-0.1,0.3-0.1l18.5,8.8
				c0.1,0,0.1,0.2,0.1,0.3C20.6-275.1,20.5-275,20.5-275z"/>
			<path class="st0" d="M4.5-275C4.5-275,4.4-275,4.5-275c-0.2-0.1-0.2-0.2-0.2-0.3l16-27.9c0.1-0.1,0.2-0.1,0.3-0.1
				c0.1,0.1,0.1,0.2,0.1,0.3l-16,27.9C4.6-275.1,4.6-275,4.5-275z"/>
			<circle class="st0" cx="7.9" cy="-281.2" r="1.1"/>
			<circle class="st0" cx="12.3" cy="-294.6" r="1.1"/>
			<circle class="st0" cx="30.6" cy="-284.8" r="1.1"/>
			<path class="st0" d="M36-270.9l-3.7-5.5c-0.6-0.9-1.9-1.1-2.8-0.5c-0.9,0.6-1.2,1.9-0.5,2.8l2.6,3.8c-1.7,1.1-3.2,1.9-4.5,2.3
				c-1.8,0.6-3.6,0.9-5.6,0.9c-2.3,0-4.6-0.5-6.7-1.3c-2.1-0.9-4-2.1-5.6-3.7c-1.6-1.5-2.8-3.3-3.8-5.4c-0.9-2-1.4-4.2-1.4-6.5
				c0-2.4,0.5-4.6,1.4-6.6c0.9-2.1,2.2-3.9,3.8-5.4c1.6-1.5,3.5-2.8,5.6-3.7c3.8-1.6,8-1.8,12.1-0.5c1.4,0.4,2.9,1.2,4.6,2.3
				l-2.5,3.8c-0.6,0.9-0.4,2.2,0.5,2.8c0.9,0.6,2.2,0.3,2.8-0.5l3.6-5.4c0.6-0.9,0.4-2.1-0.4-2.7c-2.6-2-5.1-3.4-7.3-4.1
				c-5.1-1.6-10.2-1.4-14.9,0.6c-2.6,1.1-4.9,2.6-6.8,4.5c-2,1.9-3.5,4.1-4.7,6.7C0.6-289.7,0-287,0-284c0,2.9,0.6,5.6,1.8,8.2
				c1.2,2.5,2.7,4.8,4.7,6.6c1.9,1.9,4.2,3.4,6.8,4.5c2.6,1.1,5.4,1.7,8.2,1.7c2.3,0,4.6-0.4,6.8-1.1c2.2-0.7,4.6-2.1,7.2-4
				C36.4-268.8,36.6-270,36-270.9z"/>
			<path class="st0" d="M87.5-264.9c-0.1,0-0.2-0.1-0.2-0.2V-302c0-0.1,0.1-0.2,0.2-0.2c0.1,0,0.2,0.1,0.2,0.2v36.9
				C87.7-265,87.6-264.9,87.5-264.9z"/>
			<path class="st0" d="M114.3-275c-0.1,0-0.1,0-0.1-0.1l-26.7-26.7c-0.1-0.1-0.1-0.2,0-0.3c0.1-0.1,0.2-0.1,0.3,0l26.7,26.7
				c0.1,0.1,0.1,0.2,0,0.3C114.4-275.1,114.3-275,114.3-275z"/>
			<path class="st0" d="M102.5-265.7c-0.1,0-0.2,0-0.2-0.1l-14.9-36c0-0.1,0-0.2,0.1-0.3c0.1,0,0.2,0,0.3,0.1l14.9,36
				C102.7-265.9,102.6-265.8,102.5-265.7C102.5-265.8,102.5-265.7,102.5-265.7z"/>
			<path class="st0" d="M87.5-264.9C87.5-264.9,87.5-264.9,87.5-264.9c-0.2,0-0.2-0.1-0.2-0.3L97.5-302c0-0.1,0.1-0.2,0.2-0.1
				c0.1,0,0.2,0.1,0.1,0.2L87.7-265C87.7-264.9,87.6-264.9,87.5-264.9z"/>
			<path class="st0" d="M114.3-275C114.2-275,114.2-275.1,114.3-275l-20.7-12c-0.1-0.1-0.1-0.2-0.1-0.3c0.1-0.1,0.2-0.1,0.3-0.1
				l20.6,12c0.1,0.1,0.1,0.2,0.1,0.3C114.4-275.1,114.3-275,114.3-275z"/>
			<path class="st0" d="M102.5-265.7c-0.1,0-0.1,0-0.2-0.1l-14.9-18c-0.1-0.1-0.1-0.2,0-0.3c0.1-0.1,0.2-0.1,0.3,0l14.9,18
				c0.1,0.1,0.1,0.2,0,0.3C102.6-265.8,102.5-265.7,102.5-265.7z"/>
			<path class="st0" d="M87.5-264.9c0,0-0.1,0-0.1,0c-0.1-0.1-0.1-0.2-0.1-0.3l21.3-33.2c0.1-0.1,0.2-0.1,0.3-0.1
				c0.1,0.1,0.1,0.2,0.1,0.3L87.7-265C87.7-264.9,87.6-264.9,87.5-264.9z"/>
			<circle class="st0" cx="93.6" cy="-287.3" r="1.1"/>
			<circle class="st0" cx="95.5" cy="-294" r="1.1"/>
			<circle class="st0" cx="87.5" cy="-284" r="1.1"/>
			<circle class="st0" cx="99.6" cy="-284" r="1.1"/>
			<path class="st0" d="M116.4-292c-1.1-2.5-2.7-4.7-4.7-6.5c-2-1.8-4.4-3.2-7.1-4.1c-2.7-0.9-5.6-1.4-8.7-1.4h-8.4
				c-1.1,0-2,0.9-2,2s0.9,2,2,2h8.4c2.7,0,5.1,0.4,7.4,1.2c2.2,0.7,4.1,1.8,5.7,3.3c1.6,1.4,2.8,3.1,3.7,5.1c0.9,2,1.3,4.4,1.3,7
				c0,2.5-0.5,4.8-1.4,6.8c-0.9,2-2.2,3.7-3.8,5.1c-1.6,1.4-3.5,2.5-5.7,3.3c-2.2,0.8-4.7,1.2-7.3,1.2h-8.4c-1.1,0-2,0.9-2,2
				c0,1.1,0.9,2,2,2h8.4c3.1,0,6-0.5,8.6-1.4c2.7-0.9,5-2.3,7-4c2-1.8,3.6-3.9,4.8-6.5c1.1-2.5,1.7-5.4,1.7-8.5
				C118.1-286.6,117.5-289.5,116.4-292z"/>
			<path class="st0" d="M145.5-271.4c-0.1,0-0.1,0-0.2-0.1l-20.8-30.4c-0.1-0.1,0-0.2,0.1-0.3c0.1-0.1,0.2,0,0.3,0.1l20.8,30.4
				c0.1,0.1,0,0.2-0.1,0.3C145.6-271.4,145.5-271.4,145.5-271.4z"/>
			<path class="st0" d="M124.7-264.9c0,0-0.1,0-0.1,0c-0.1-0.1-0.1-0.2-0.1-0.3l20.8-30.3c0.1-0.1,0.2-0.1,0.3-0.1
				c0.1,0.1,0.1,0.2,0.1,0.3L124.8-265C124.8-264.9,124.7-264.9,124.7-264.9z"/>
			<path class="st0" d="M145.1-281.6c-0.1,0-0.1,0-0.1-0.1l-20.4-20.2c-0.1-0.1-0.1-0.2,0-0.3c0.1-0.1,0.2-0.1,0.3,0l20.4,20.2
				c0.1,0.1,0.1,0.2,0,0.3C145.2-281.6,145.1-281.6,145.1-281.6z"/>
			<path class="st0" d="M124.7-264.9c0,0-0.1,0-0.1,0c-0.1-0.1-0.1-0.2,0-0.3l20.4-23.2c0.1-0.1,0.2-0.1,0.3,0
				c0.1,0.1,0.1,0.2,0,0.3L124.8-265C124.8-264.9,124.7-264.9,124.7-264.9z"/>
			<path class="st0" d="M145.1-281.6C145-281.6,145-281.6,145.1-281.6l-20.5-5c-0.1,0-0.2-0.1-0.1-0.2c0-0.1,0.1-0.2,0.2-0.1l20.4,5
				c0.1,0,0.2,0.1,0.1,0.2C145.2-281.7,145.1-281.6,145.1-281.6z"/>
			<path class="st0" d="M145.5-264.9c-0.1,0-0.1,0-0.1-0.1l-20.8-21.7c-0.1-0.1-0.1-0.2,0-0.3s0.2-0.1,0.3,0l20.8,21.7
				c0.1,0.1,0.1,0.2,0,0.3C145.6-264.9,145.5-264.9,145.5-264.9z"/>
			<path class="st0" d="M124.7-286.6c-0.1,0-0.1,0-0.2-0.1c-0.1-0.1,0-0.2,0-0.3l20.8-15.2c0.1-0.1,0.2,0,0.3,0c0.1,0.1,0,0.2,0,0.3
				l-20.8,15.2C124.7-286.6,124.7-286.6,124.7-286.6z"/>
			<path class="st0" d="M124.7-286.6c-0.1,0-0.2-0.1-0.2-0.2c0-0.1,0.1-0.2,0.2-0.2l20.4-1.5c0.1,0,0.2,0.1,0.2,0.2
				c0,0.1-0.1,0.2-0.2,0.2L124.7-286.6C124.7-286.6,124.7-286.6,124.7-286.6z"/>
			<circle class="st0" cx="133.5" cy="-293.3" r="1.1"/>
			<circle class="st0" cx="138.9" cy="-281.2" r="1.1"/>
			<circle class="st0" cx="131.5" cy="-287.4" r="1.1"/>
			<g>
				<path class="st0" d="M147.5-302c0-1.1-0.9-2-2-2h-20.8c-1.1,0-2,0.9-2,2v36.9c0,1.1,0.9,2,2,2h20.8c1.1,0,2-0.9,2-2v-6.5
					c0-1.1-0.9-2-2-2c-1.1,0-2,0.9-2,2v4.5h-16.8V-300h16.8v4.6c0,1.1,0.9,2,2,2c1.1,0,2-0.9,2-2V-302z"/>
				<path class="st0" d="M145.1-290.3c-1.1,0-2,0.9-2,2v6.5c0,1.1,0.9,2,2,2s2-0.9,2-2v-6.5C147.1-289.4,146.2-290.3,145.1-290.3z"
					/>
			</g>
			<path class="st0" d="M157.4-264.9c0,0-0.1,0-0.1,0c-0.1-0.1-0.1-0.2,0-0.3l13.6-15.9c0.1-0.1,0.2-0.1,0.3,0
				c0.1,0.1,0.1,0.2,0,0.3L157.6-265C157.5-264.9,157.5-264.9,157.4-264.9z"/>
			<path class="st0" d="M171.1-280.8c-0.1,0-0.2-0.1-0.2-0.1l-5.5-21c0-0.1,0-0.2,0.1-0.2c0.1,0,0.2,0,0.2,0.1l5.5,21
				C171.3-280.9,171.2-280.8,171.1-280.8C171.1-280.8,171.1-280.8,171.1-280.8z"/>
			<path class="st0" d="M171.1-280.8c-0.1,0-0.1,0-0.2-0.1l-13.6-21c-0.1-0.1,0-0.2,0.1-0.3c0.1-0.1,0.2,0,0.3,0.1l13.6,21
				c0.1,0.1,0,0.2-0.1,0.3C171.1-280.8,171.1-280.8,171.1-280.8z"/>
			<path class="st0" d="M157.4-264.9C157.4-264.9,157.4-264.9,157.4-264.9c-0.1,0-0.2-0.1-0.2-0.2l8.1-36.9c0-0.1,0.1-0.2,0.2-0.2
				c0.1,0,0.2,0.1,0.2,0.2l-8.1,36.9C157.6-264.9,157.5-264.9,157.4-264.9z"/>
			<path class="st0" d="M182.2-264.9c0,0-0.1,0-0.1,0l-24.6-15.9c-0.1-0.1-0.1-0.2-0.1-0.3c0.1-0.1,0.2-0.1,0.3-0.1l24.6,15.9
				c0.1,0.1,0.1,0.2,0.1,0.3C182.3-264.9,182.2-264.9,182.2-264.9z"/>
			<path class="st0" d="M157.5-280.8C157.5-280.8,157.5-280.8,157.5-280.8c-0.2-0.1-0.2-0.2-0.2-0.3l8-21c0-0.1,0.2-0.2,0.3-0.1
				c0.1,0,0.2,0.2,0.1,0.3l-8,21C157.7-280.8,157.6-280.8,157.5-280.8z"/>
			<path class="st0" d="M183.8-266.2l-9.7-13.8c1.6-0.8,2.9-1.9,4-3.2c1.7-2.1,2.5-4.7,2.5-7.9c0-2.4-0.4-4.5-1.3-6.1
				c-0.8-1.7-2-3-3.5-4.1c-1.4-1-3-1.7-4.9-2.1c-1.7-0.4-3.6-0.6-5.5-0.6h-8.1c-1.1,0-2,0.9-2,2v36.9c0,1.1,0.9,2,2,2
				c1.1,0,2-0.9,2-2V-300h6.1c1.7,0,3.2,0.2,4.7,0.5c1.3,0.3,2.5,0.8,3.4,1.5c0.9,0.6,1.7,1.5,2.2,2.6c0.5,1.1,0.8,2.5,0.8,4.3
				c0,2.2-0.6,4-1.6,5.4c-1.1,1.4-2.6,2.4-4.5,2.9c-0.6,0.2-1.1,0.6-1.3,1.3c-0.2,0.6-0.1,1.3,0.2,1.8l11.1,15.9
				c0.4,0.5,1,0.9,1.6,0.9c0.4,0,0.8-0.1,1.2-0.4C184.2-264.1,184.5-265.3,183.8-266.2z"/>
			<circle class="st0" cx="160.5" cy="-279" r="1.1"/>
			<circle class="st0" cx="162.5" cy="-294.2" r="1.1"/>
			<circle class="st0" cx="168.1" cy="-291.9" r="1.1"/>
			<path class="st0" d="M60.6-264.9c-0.1,0-0.2-0.1-0.2-0.2v-38c0-0.1,0.1-0.2,0.2-0.2c0.1,0,0.2,0.1,0.2,0.2v38
				C60.8-265,60.7-264.9,60.6-264.9z"/>
			<path class="st0" d="M79.7-283.8c-0.1,0-0.1,0-0.1-0.1L60.4-303c-0.1-0.1-0.1-0.2,0-0.3c0.1-0.1,0.2-0.1,0.3,0l19.1,19.2
				c0.1,0.1,0.1,0.2,0,0.3C79.8-283.8,79.8-283.8,79.7-283.8z"/>
			<path class="st0" d="M60.6-264.9c-0.1,0-0.1,0-0.1-0.1c-0.1-0.1-0.1-0.2,0-0.3l19.1-18.9c0.1-0.1,0.2-0.1,0.3,0
				c0.1,0.1,0.1,0.2,0,0.3l-19.1,18.9C60.7-264.9,60.6-264.9,60.6-264.9z"/>
			<path class="st0" d="M45.9-271.6c-0.1,0-0.2-0.1-0.2-0.1c0-0.1,0-0.2,0.1-0.3l33.8-12.2c0.1,0,0.2,0,0.3,0.1c0,0.1,0,0.2-0.1,0.3
				L45.9-271.6C46-271.6,46-271.6,45.9-271.6z"/>
			<path class="st0" d="M80.2-292.3c-1.1-2.5-2.7-4.8-4.6-6.7c-1.9-1.9-4.2-3.4-6.8-4.5c-2.6-1.1-5.4-1.7-8.2-1.7
				c-2.9,0-5.7,0.6-8.3,1.7c-2.6,1.1-4.9,2.6-6.8,4.6c-1.9,1.9-3.5,4.2-4.6,6.7c-1.1,2.6-1.7,5.3-1.7,8.1c0,2.9,0.6,5.6,1.7,8.2
				c1.1,2.5,2.7,4.8,4.6,6.7c1.9,1.9,4.2,3.4,6.8,4.5c2.6,1.1,5.4,1.7,8.3,1.7c2.9,0,5.6-0.6,8.2-1.7c2.6-1.1,4.9-2.6,6.8-4.5
				c1.9-1.9,3.5-4.1,4.6-6.7c1.1-2.6,1.7-5.3,1.7-8.2C81.9-287,81.3-289.7,80.2-292.3z M60.6-267.1c-2.4,0-4.6-0.4-6.7-1.3
				c-2.1-0.9-4-2.1-5.5-3.7c-1.6-1.5-2.8-3.4-3.8-5.4c-0.9-2-1.4-4.2-1.4-6.6c0-2.3,0.5-4.5,1.4-6.5c0.9-2.1,2.2-3.9,3.7-5.5
				c1.6-1.6,3.4-2.8,5.5-3.7c2.1-0.9,4.4-1.3,6.7-1.3c2.3,0,4.6,0.5,6.7,1.3c2.1,0.9,4,2.1,5.5,3.7c1.6,1.5,2.8,3.4,3.7,5.4
				c0.9,2,1.4,4.2,1.4,6.6c0,2.3-0.5,4.5-1.4,6.6c-0.9,2.1-2.2,3.9-3.7,5.4c-1.6,1.5-3.4,2.8-5.5,3.7
				C65.2-267.5,62.9-267.1,60.6-267.1z"/>
			<circle class="st0" cx="70.2" cy="-293.5" r="1.1"/>
			<circle class="st0" cx="50" cy="-287.3" r="1.1"/>
		</g>
	</g>
	<g>
		<circle class="st0" cx="92.1" cy="-326.4" r="1.1"/>
		<g>
			<path class="st0" d="M123.9-324.2c-0.1,0-0.2-0.1-0.2-0.2v-36.9c0-0.1,0.1-0.2,0.2-0.2c0.1,0,0.2,0.1,0.2,0.2v36.9
				C124.1-324.3,124-324.2,123.9-324.2z"/>
			<path class="st0" d="M123.9-324.2c0,0-0.1,0-0.1-0.1c-0.1-0.1-0.1-0.2,0-0.3l19.7-20.1c0.1-0.1,0.2-0.1,0.3,0
				c0.1,0.1,0.1,0.2,0,0.3L124-324.3C124-324.2,123.9-324.2,123.9-324.2z"/>
			<path class="st0" d="M123.9-324.2C123.9-324.2,123.8-324.2,123.9-324.2c-0.2,0-0.2-0.2-0.2-0.3l12.3-36.7c0-0.1,0.1-0.2,0.3-0.1
				c0.1,0,0.2,0.1,0.1,0.3l-12.3,36.7C124.1-324.3,124-324.2,123.9-324.2z"/>
			<path class="st0" d="M132.5-333c-0.1,0-0.2-0.1-0.2-0.1l-8.6-28.1c0-0.1,0-0.2,0.1-0.2c0.1,0,0.2,0,0.2,0.1l8.6,28.1
				C132.7-333.2,132.7-333.1,132.5-333C132.5-333,132.5-333,132.5-333z"/>
			<path class="st0" d="M143.6-326.4c-0.1,0-0.2-0.1-0.2-0.2v-17.9c0-0.1,0.1-0.2,0.2-0.2c0.1,0,0.2,0.1,0.2,0.2v17.9
				C143.8-326.5,143.7-326.4,143.6-326.4z"/>
			<path class="st0" d="M143.6-326.4c0,0-0.1,0-0.1,0l-11.1-6.6c-0.1-0.1-0.1-0.2-0.1-0.3c0.1-0.1,0.2-0.1,0.3-0.1l11.1,6.6
				c0.1,0.1,0.1,0.2,0.1,0.3C143.7-326.4,143.7-326.4,143.6-326.4z"/>
			<circle class="st0" cx="132.5" cy="-333.2" r="1.1"/>
			<circle class="st0" cx="123.9" cy="-348.3" r="1.1"/>
			<circle class="st0" cx="129.8" cy="-342" r="1.1"/>
			<circle class="st0" cx="143.6" cy="-335.9" r="1.1"/>
			<path class="st0" d="M149-341.8c-0.7-1.2-1.6-2.3-2.7-3.3c0.8-1.6,1.2-3.4,1.2-5.4c0-2.2-0.4-4.1-1.1-5.7
				c-0.7-1.7-1.8-3.1-3.1-4.1c-1.3-1-2.8-1.8-4.6-2.3c-1.7-0.5-3.5-0.7-5.4-0.7h-9.4c-1.1,0-2,0.9-2,2s0.9,2,2,2h9.4
				c1.5,0,3,0.2,4.3,0.6c1.2,0.3,2.3,0.9,3.2,1.6c0.8,0.7,1.5,1.5,2,2.6c0.5,1.1,0.7,2.5,0.7,4.1c0,1.9-0.5,3.5-1.4,4.7
				c-0.4,0.4-0.5,1-0.4,1.6c0.1,0.6,0.4,1.1,0.9,1.4c1.2,0.8,2.2,1.8,2.9,3.1c0.7,1.2,1,2.6,1,4.1c0,1.6-0.3,3-0.9,4.1
				c-0.6,1.1-1.4,2.1-2.4,2.8c-1.1,0.8-2.3,1.3-3.6,1.7c-1.4,0.4-2.9,0.6-4.3,0.6h-11.3c-1.1,0-2,0.9-2,2c0,1.1,0.9,2,2,2h11.3
				c1.9,0,3.7-0.2,5.4-0.7c1.8-0.5,3.5-1.3,4.9-2.3c1.5-1.1,2.7-2.5,3.6-4.2c0.9-1.7,1.4-3.7,1.4-6C150.5-337.9,150-339.9,149-341.8
				z"/>
			<path class="st0" d="M112-330.7c-0.1,0-0.1,0-0.2-0.1L91-361.2c-0.1-0.1,0-0.2,0.1-0.3c0.1-0.1,0.2,0,0.3,0.1l20.8,30.4
				c0.1,0.1,0,0.2-0.1,0.3C112-330.7,112-330.7,112-330.7z"/>
			<path class="st0" d="M91.1-324.2c0,0-0.1,0-0.1,0c-0.1-0.1-0.1-0.2-0.1-0.3l20.8-30.3c0.1-0.1,0.2-0.1,0.3-0.1
				c0.1,0.1,0.1,0.2,0.1,0.3l-20.8,30.3C91.3-324.2,91.2-324.2,91.1-324.2z"/>
			<path class="st0" d="M111.5-340.9c0,0-0.1,0-0.1-0.1L91-361.2c-0.1-0.1-0.1-0.2,0-0.3c0.1-0.1,0.2-0.1,0.3,0l20.4,20.2
				c0.1,0.1,0.1,0.2,0,0.3C111.6-340.9,111.6-340.9,111.5-340.9z"/>
			<path class="st0" d="M91.1-324.2c0,0-0.1,0-0.1,0c-0.1-0.1-0.1-0.2,0-0.3l20.4-23.2c0.1-0.1,0.2-0.1,0.3,0c0.1,0.1,0.1,0.2,0,0.3
				l-20.4,23.2C91.2-324.2,91.2-324.2,91.1-324.2z"/>
			<path class="st0" d="M111.5-340.9C111.5-340.9,111.5-340.9,111.5-340.9l-20.5-5c-0.1,0-0.2-0.1-0.1-0.2c0-0.1,0.1-0.2,0.2-0.1
				l20.4,5c0.1,0,0.2,0.1,0.1,0.2C111.7-341,111.6-340.9,111.5-340.9z"/>
			<path class="st0" d="M112-324.2c-0.1,0-0.1,0-0.1-0.1L91-346c-0.1-0.1-0.1-0.2,0-0.3c0.1-0.1,0.2-0.1,0.3,0l20.8,21.7
				c0.1,0.1,0.1,0.2,0,0.3C112.1-324.2,112-324.2,112-324.2z"/>
			<path class="st0" d="M91.1-345.9c-0.1,0-0.1,0-0.2-0.1c-0.1-0.1,0-0.2,0-0.3l20.8-15.2c0.1-0.1,0.2,0,0.3,0c0.1,0.1,0,0.2,0,0.3
				L91.2-346C91.2-345.9,91.2-345.9,91.1-345.9z"/>
			<path class="st0" d="M91.1-345.9c-0.1,0-0.2-0.1-0.2-0.2c0-0.1,0.1-0.2,0.2-0.2l20.4-1.5c0.1,0,0.2,0.1,0.2,0.2
				c0,0.1-0.1,0.2-0.2,0.2L91.1-345.9C91.1-345.9,91.1-345.9,91.1-345.9z"/>
			<circle class="st0" cx="101" cy="-335.7" r="1.1"/>
			<circle class="st0" cx="100" cy="-352.7" r="1.1"/>
			<circle class="st0" cx="105.3" cy="-340.6" r="1.1"/>
			<circle class="st0" cx="98" cy="-346.7" r="1.1"/>
			<g>
				<path class="st0" d="M114-361.3c0-1.1-0.9-2-2-2H91.1c-1.1,0-2,0.9-2,2v36.9c0,1.1,0.9,2,2,2H112c1.1,0,2-0.9,2-2v-6.5
					c0-1.1-0.9-2-2-2c-1.1,0-2,0.9-2,2v4.5H93.1v-32.9h16.8v4.6c0,1.1,0.9,2,2,2c1.1,0,2-0.9,2-2V-361.3z"/>
				<path class="st0" d="M111.5-349.6c-1.1,0-2,0.9-2,2v6.5c0,1.1,0.9,2,2,2c1.1,0,2-0.9,2-2v-6.5
					C113.5-348.7,112.6-349.6,111.5-349.6z"/>
			</g>
			<path class="st0" d="M58-348.6c0,0-0.1,0-0.1,0l-15.3-12.5c-0.1-0.1-0.1-0.2,0-0.3c0.1-0.1,0.2-0.1,0.3,0L58.1-349
				c0.1,0.1,0.1,0.2,0,0.3C58.1-348.6,58.1-348.6,58-348.6z"/>
			<path class="st0" d="M68.2-324.2C68.2-324.2,68.2-324.2,68.2-324.2c-0.1,0-0.2-0.1-0.2-0.2l5-36.9c0-0.1,0.1-0.2,0.2-0.2
				c0.1,0,0.2,0.1,0.2,0.2l-5,36.9C68.4-324.3,68.3-324.2,68.2-324.2z"/>
			<path class="st0" d="M72.5-324.2C72.5-324.2,72.5-324.2,72.5-324.2c-0.1,0-0.2-0.1-0.2-0.2l0.7-36.9c0-0.1,0.1-0.2,0.2-0.2
				c0,0,0,0,0,0c0.1,0,0.2,0.1,0.2,0.2l-0.7,36.9C72.7-324.3,72.6-324.2,72.5-324.2z"/>
			<path class="st0" d="M43.5-324.2c-0.1,0-0.2-0.1-0.2-0.2l-0.8-36.9c0-0.1,0.1-0.2,0.2-0.2c0,0,0,0,0,0c0.1,0,0.2,0.1,0.2,0.2
				l0.8,36.9C43.7-324.3,43.6-324.2,43.5-324.2C43.5-324.2,43.5-324.2,43.5-324.2z"/>
			<path class="st0" d="M39.7-342c-0.1,0-0.2,0-0.2-0.1c0-0.1,0-0.2,0.1-0.3l18.2-6.6c0.1,0,0.2,0,0.3,0.1c0,0.1,0,0.2-0.1,0.3
				L39.7-342C39.8-342,39.8-342,39.7-342z"/>
			<path class="st0" d="M47.9-324.2c-0.1,0-0.1,0-0.2-0.1l-8.1-17.8c0-0.1,0-0.2,0.1-0.3c0.1,0,0.2,0,0.3,0.1l8.1,17.8
				C48.1-324.4,48-324.3,47.9-324.2C47.9-324.2,47.9-324.2,47.9-324.2z"/>
			<path class="st0" d="M63-336.6c0,0-0.1,0-0.1,0c-0.1-0.1-0.1-0.2,0-0.3l17.3-24.5c0.1-0.1,0.2-0.1,0.3,0c0.1,0.1,0.1,0.2,0,0.3
				l-17.3,24.5C63.1-336.7,63.1-336.6,63-336.6z"/>
			<path class="st0" d="M73.2-361.1H42.7c-0.1,0-0.2-0.1-0.2-0.2c0-0.1,0.1-0.2,0.2-0.2h30.5c0.1,0,0.2,0.1,0.2,0.2
				C73.4-361.2,73.3-361.1,73.2-361.1z"/>
			<path class="st0" d="M58-348.6c-0.1,0-0.1,0-0.2-0.1c-0.1-0.1-0.1-0.2,0-0.3l15.2-12.5c0.1-0.1,0.2-0.1,0.3,0
				c0.1,0.1,0.1,0.2,0,0.3l-15.2,12.5C58.1-348.6,58-348.6,58-348.6z"/>
			<path class="st0" d="M81.9-362.6c-0.4-0.5-1-0.7-1.6-0.7h-7c-1.1,0-2,0.9-2,2c0,1.1,0.9,2,2,2h4.5l-7,32.9h-1.4l-9.6-23.2
				c-0.3-0.8-1-1.2-1.9-1.2c-0.8,0-1.5,0.5-1.9,1.2l-9.7,23.2h-1.4l-6.9-32.9h4.6c1.1,0,2-0.9,2-2c0-1.1-0.9-2-2-2h-7.1
				c-0.6,0-1.2,0.3-1.6,0.7c-0.4,0.5-0.5,1.1-0.4,1.7l7.8,36.9c0.2,0.9,1,1.6,2,1.6h4.3c0.8,0,1.5-0.5,1.9-1.2l8.3-19.9l8.3,19.9
				c0.3,0.8,1,1.2,1.9,1.2h4.3c0.9,0,1.8-0.7,2-1.6l7.8-36.9C82.4-361.5,82.2-362.1,81.9-362.6z"/>
			<circle class="st0" cx="43.1" cy="-343.5" r="1.1"/>
			<circle class="st0" cx="73.1" cy="-351.1" r="1.1"/>
			<circle class="st0" cx="47.9" cy="-351.1" r="1.1"/>
			<circle class="st0" cx="58" cy="-361.3" r="1.1"/>
			<circle class="st0" cx="69.7" cy="-335.6" r="1.1"/>
		</g>
	</g>
	<g>
		<g>
			<path class="st0" d="M130.5-205.4c-0.1,0-0.2-0.1-0.2-0.2v-37.2c0-0.1,0.1-0.2,0.2-0.2c0.1,0,0.2,0.1,0.2,0.2v37.2
				C130.7-205.5,130.6-205.4,130.5-205.4z"/>
			<path class="st0" d="M130.5-205.4c-0.1,0-0.1,0-0.1-0.1c-0.1-0.1-0.1-0.2,0-0.3l19.9-20.3c0.1-0.1,0.2-0.1,0.3,0
				c0.1,0.1,0.1,0.2,0,0.3l-19.8,20.3C130.6-205.4,130.5-205.4,130.5-205.4z"/>
			<path class="st0" d="M130.5-205.4C130.5-205.4,130.4-205.4,130.5-205.4c-0.2,0-0.2-0.2-0.2-0.3l12.4-37c0-0.1,0.1-0.2,0.3-0.1
				c0.1,0,0.2,0.1,0.1,0.3l-12.4,37C130.6-205.4,130.6-205.4,130.5-205.4z"/>
			<path class="st0" d="M139.2-214.2c-0.1,0-0.2-0.1-0.2-0.1l-8.7-28.3c0-0.1,0-0.2,0.1-0.2c0.1,0,0.2,0,0.2,0.1l8.7,28.3
				C139.4-214.4,139.3-214.3,139.2-214.2C139.2-214.2,139.2-214.2,139.2-214.2z"/>
			<path class="st0" d="M150.3-207.6c-0.1,0-0.2-0.1-0.2-0.2v-18.1c0-0.1,0.1-0.2,0.2-0.2c0.1,0,0.2,0.1,0.2,0.2v18.1
				C150.5-207.7,150.4-207.6,150.3-207.6z"/>
			<path class="st0" d="M150.3-207.6c0,0-0.1,0-0.1,0l-11.2-6.7c-0.1-0.1-0.1-0.2-0.1-0.3c0.1-0.1,0.2-0.1,0.3-0.1l11.2,6.7
				c0.1,0.1,0.1,0.2,0.1,0.3C150.5-207.6,150.4-207.6,150.3-207.6z"/>
			<circle class="st0" cx="139.2" cy="-214.4" r="1.1"/>
			<circle class="st0" cx="130.5" cy="-229.6" r="1.1"/>
			<circle class="st0" cx="136.4" cy="-223.3" r="1.1"/>
			<circle class="st0" cx="150.3" cy="-217.2" r="1.1"/>
			<g>
				<path class="st0" d="M141.9-204.8h-11.4c-0.4,0-0.8-0.4-0.8-0.8c0-0.4,0.4-0.8,0.8-0.8h11.4c1.6,0,3.2-0.2,4.7-0.6
					c1.5-0.4,2.9-1.1,4-1.9c1.2-0.8,2.1-1.9,2.8-3.2c0.7-1.3,1-2.9,1-4.7c0-1.7-0.4-3.3-1.2-4.7c-0.8-1.4-1.9-2.6-3.4-3.5
					c-0.2-0.1-0.3-0.3-0.4-0.5c0-0.2,0-0.5,0.2-0.6c1.1-1.4,1.7-3.3,1.7-5.5c0-1.8-0.3-3.4-0.8-4.6c-0.6-1.3-1.3-2.3-2.3-3.1
					c-1-0.8-2.2-1.4-3.6-1.8c-1.4-0.4-3-0.6-4.6-0.6h-9.5c-0.4,0-0.8-0.4-0.8-0.8c0-0.4,0.4-0.8,0.8-0.8h9.5c1.8,0,3.5,0.2,5.1,0.7
					c1.6,0.4,3,1.1,4.2,2.1c1.2,0.9,2.1,2.2,2.8,3.7c0.7,1.5,1,3.3,1,5.3c0,2.2-0.5,4.2-1.6,5.8c1.3,1,2.4,2.2,3.2,3.6
					c0.9,1.7,1.4,3.5,1.4,5.5c0,2.1-0.4,3.9-1.2,5.5c-0.8,1.5-1.9,2.8-3.3,3.8c-1.3,1-2.9,1.7-4.5,2.2
					C145.4-205,143.6-204.8,141.9-204.8z"/>
				<path class="st0" d="M141.9-203.5h-11.4c-1.1,0-2-0.9-2-2c0-1.1,0.9-2,2-2h11.4c1.5,0,3-0.2,4.4-0.6c1.4-0.4,2.6-1,3.7-1.7
					c1-0.7,1.8-1.7,2.4-2.8c0.6-1.1,0.9-2.5,0.9-4.2c0-1.5-0.4-2.9-1-4.1c-0.7-1.2-1.7-2.3-2.9-3.1c-0.5-0.3-0.8-0.8-0.9-1.4
					c-0.1-0.6,0.1-1.1,0.4-1.6c1-1.2,1.5-2.8,1.5-4.7c0-1.6-0.2-3-0.7-4.1c-0.5-1.1-1.1-1.9-2-2.6c-0.9-0.7-2-1.2-3.2-1.6
					c-1.3-0.4-2.8-0.6-4.3-0.6h-9.5c-1.1,0-2-0.9-2-2c0-1.1,0.9-2,2-2h9.5c1.9,0,3.7,0.2,5.4,0.7c1.8,0.5,3.3,1.3,4.6,2.3
					c1.4,1.1,2.4,2.5,3.2,4.2c0.7,1.6,1.1,3.6,1.1,5.8c0,2-0.4,3.9-1.2,5.5c1.1,0.9,2,2.1,2.7,3.3c1,1.8,1.6,3.9,1.6,6.1
					c0,2.3-0.5,4.3-1.4,6c-0.9,1.7-2.1,3.1-3.6,4.2c-1.5,1.1-3.1,1.8-4.9,2.3C145.6-203.8,143.8-203.5,141.9-203.5z"/>
			</g>
		</g>
		<path class="st0" d="M57.7-232.9c-0.1,0-0.1,0-0.1-0.1l-10.2-10.2c-0.1-0.1-0.1-0.2,0-0.3c0.1-0.1,0.2-0.1,0.3,0l10.2,10.2
			c0.1,0.1,0.1,0.2,0,0.3C57.8-232.9,57.8-232.9,57.7-232.9z"/>
		<path class="st0" d="M28.9-223.9c-0.1,0-0.1,0-0.1-0.1c-0.1-0.1-0.1-0.2,0-0.3l18.6-19.2c0.1-0.1,0.2-0.1,0.3,0
			c0.1,0.1,0.1,0.2,0,0.3l-18.6,19.2C29-223.9,29-223.9,28.9-223.9z"/>
		<path class="st0" d="M47.5-204.8c-0.1,0-0.2-0.1-0.2-0.2v-38.3c0-0.1,0.1-0.2,0.2-0.2c0.1,0,0.2,0.1,0.2,0.2v38.3
			C47.7-204.9,47.6-204.8,47.5-204.8z"/>
		<path class="st0" d="M57.7-215H31.4c-0.1,0-0.2-0.1-0.2-0.2c0-0.1,0.1-0.2,0.2-0.2h26.3c0.1,0,0.2,0.1,0.2,0.2
			C57.9-215.1,57.8-215,57.7-215z"/>
		<path class="st0" d="M47.5-215C47.5-215,47.5-215,47.5-215l-18.7-8.9c-0.1,0-0.1-0.2-0.1-0.3c0-0.1,0.2-0.1,0.3-0.1l18.6,8.9
			c0.1,0,0.1,0.2,0.1,0.3C47.7-215.1,47.6-215,47.5-215z"/>
		<path class="st0" d="M31.4-215C31.4-215,31.4-215,31.4-215c-0.2-0.1-0.2-0.2-0.2-0.3l16.1-28.1c0.1-0.1,0.2-0.1,0.3-0.1
			c0.1,0.1,0.1,0.2,0.1,0.3l-16.1,28.1C31.6-215.1,31.5-215,31.4-215z"/>
		<circle class="st0" cx="47.5" cy="-215.2" r="1.1"/>
		<circle class="st0" cx="34.9" cy="-221.2" r="1.1"/>
		<circle class="st0" cx="39.3" cy="-234.7" r="1.1"/>
		<circle class="st0" cx="50.9" cy="-240" r="1.1"/>
		<circle class="st0" cx="57.7" cy="-224.9" r="1.1"/>
		<g>
			<path class="st0" d="M48.5-204.2c-2.7,0-5.4-0.5-7.8-1.6c-2.5-1-4.6-2.5-6.5-4.2c-1.8-1.8-3.3-3.9-4.4-6.3
				c-1.1-2.4-1.7-5-1.7-7.8c0-2.8,0.5-5.4,1.6-7.8c1.1-2.4,2.6-4.5,4.4-6.3c1.9-1.8,4.1-3.2,6.5-4.3c4.3-1.8,9.2-2.2,14.2-0.6
				c2.1,0.7,4.5,2,7,3.9c0.3,0.3,0.4,0.7,0.2,1.1l-3.7,5.4c-0.2,0.4-0.7,0.5-1.1,0.2c-0.4-0.2-0.5-0.7-0.2-1.1l3.2-4.8
				c-2.1-1.6-4.1-2.6-5.9-3.2c-4.7-1.5-9.1-1.2-13.1,0.5c-2.3,1-4.3,2.3-6,4c-1.7,1.7-3.1,3.6-4.1,5.8c-1,2.2-1.5,4.6-1.5,7.2
				c0,2.5,0.5,4.9,1.5,7.1c1,2.2,2.4,4.2,4.1,5.8c1.7,1.6,3.7,3,6,3.9c2.3,1,4.7,1.4,7.2,1.4c2.1,0,4.1-0.3,6-0.9
				c1.7-0.6,3.7-1.6,5.9-3.2l-3.3-4.8c-0.2-0.4-0.2-0.9,0.2-1.1c0.4-0.2,0.9-0.2,1.1,0.2l3.7,5.5c0.2,0.4,0.2,0.8-0.2,1.1
				c-2.5,1.9-4.9,3.2-6.9,3.8C52.9-204.6,50.7-204.2,48.5-204.2z"/>
			<path class="st0" d="M48.5-203c-2.9,0-5.7-0.6-8.3-1.7c-2.6-1.1-4.9-2.6-6.8-4.5c-2-1.9-3.5-4.1-4.7-6.7
				c-1.2-2.6-1.8-5.4-1.8-8.3c0-3,0.6-5.7,1.7-8.3c1.1-2.6,2.7-4.8,4.7-6.7c2-1.9,4.3-3.4,6.9-4.5c4.7-2,9.9-2.2,15-0.6
				c2.3,0.7,4.8,2.1,7.4,4.1c0.8,0.7,1,1.9,0.4,2.7l-3.7,5.4c-0.6,0.9-1.9,1.2-2.8,0.5c-0.4-0.3-0.8-0.8-0.9-1.3
				c-0.1-0.5,0-1.1,0.3-1.5l2.6-3.8c-1.7-1.1-3.2-1.9-4.6-2.4c-4.2-1.3-8.4-1.2-12.2,0.5c-2.1,0.9-4,2.2-5.7,3.7
				c-1.6,1.5-2.9,3.4-3.8,5.5c-0.9,2.1-1.4,4.3-1.4,6.7c0,2.3,0.5,4.5,1.4,6.6c0.9,2.1,2.2,3.9,3.8,5.4c1.6,1.5,3.5,2.8,5.6,3.7
				c2.1,0.9,4.4,1.3,6.7,1.3c1.9,0,3.8-0.3,5.6-0.9c1.4-0.4,2.9-1.2,4.6-2.3l-2.6-3.8c-0.6-0.9-0.4-2.2,0.5-2.8
				c0.9-0.6,2.2-0.4,2.8,0.5l3.7,5.5c0.6,0.9,0.4,2.1-0.5,2.8c-2.6,1.9-5.1,3.3-7.3,4C53.2-203.3,50.9-203,48.5-203z"/>
		</g>
		<path class="st0" d="M121.1-222.1c-0.1,0-0.1,0-0.1-0.1l-20.6-20.6c-0.1-0.1-0.1-0.2,0-0.3c0.1-0.1,0.2-0.1,0.3,0l20.6,20.6
			c0.1,0.1,0.1,0.2,0,0.3C121.2-222.1,121.1-222.1,121.1-222.1z"/>
		<path class="st0" d="M107.3-205C107.3-205,107.3-205,107.3-205c-0.1,0-0.2-0.1-0.2-0.2l6.8-37.7c0-0.1,0.1-0.2,0.2-0.2
			c0.1,0,0.2,0.1,0.2,0.2l-6.8,37.7C107.5-205,107.4-205,107.3-205z"/>
		<path class="st0" d="M107.3-205C107.3-205,107.3-205,107.3-205c-0.2-0.1-0.2-0.2-0.2-0.3L121-243c0-0.1,0.2-0.2,0.3-0.1
			c0.1,0,0.2,0.2,0.1,0.3l-13.9,37.7C107.5-205,107.4-205,107.3-205z"/>
		<path class="st0" d="M120.3-222.8c0,0-0.1,0-0.1,0l-26.9-19.8c-0.1-0.1-0.1-0.2,0-0.3c0.1-0.1,0.2-0.1,0.3,0l26.9,19.8
			c0.1,0.1,0.1,0.2,0,0.3C120.5-222.9,120.4-222.8,120.3-222.8z"/>
		<path class="st0" d="M107.3-205c0,0-0.1,0-0.1,0c-0.1-0.1-0.1-0.2,0-0.3l13-17.9c0.1-0.1,0.2-0.1,0.3,0c0.1,0.1,0.1,0.2,0,0.3
			l-13,17.9C107.5-205,107.4-205,107.3-205z"/>
		<path class="st0" d="M107.3-205c-0.1,0-0.2-0.1-0.2-0.1l-13.9-37.7c0-0.1,0-0.2,0.1-0.3c0.1,0,0.2,0,0.3,0.1l13.9,37.7
			C107.6-205.1,107.5-205,107.3-205C107.4-205,107.3-205,107.3-205z"/>
		<path class="st0" d="M114.2-242.7h-13.7c-0.1,0-0.2-0.1-0.2-0.2c0-0.1,0.1-0.2,0.2-0.2h13.7c0.1,0,0.2,0.1,0.2,0.2
			C114.4-242.8,114.3-242.7,114.2-242.7z"/>
		<g>
			<path class="st0" d="M107.3-204.4c-1.6,0-3.2-0.2-4.8-0.7c-1.6-0.5-3-1.2-4.3-2.1c-1.3-0.9-2.5-2.1-3.4-3.4
				c-0.9-1.3-1.6-2.8-1.9-4.5c-0.2-0.8-0.2-1.7-0.3-2.6c0-0.9,0-1.7,0-2.6v-22.7c0-0.4,0.4-0.8,0.8-0.8h7c0.4,0,0.8,0.4,0.8,0.8
				c0,0.4-0.4,0.8-0.8,0.8h-6.2v21.9c0,0.9,0,1.7,0,2.6c0,0.8,0.1,1.6,0.2,2.3c0.3,1.4,0.8,2.7,1.6,3.9c0.8,1.2,1.8,2.2,3,3
				c1.2,0.8,2.5,1.4,3.9,1.9c3.2,0.9,6.6,0.8,9.4-0.2c1.5-0.5,2.9-1.3,4-2.3c1.1-1,2.1-2.3,2.7-3.7c0.7-1.5,1.1-3.1,1.2-4.9
				c0-0.4,0.1-0.8,0.1-1.2v-23.1h-6.2c-0.4,0-0.8-0.4-0.8-0.8c0-0.4,0.4-0.8,0.8-0.8h7c0.4,0,0.8,0.4,0.8,0.8v23.9
				c0,0.5,0,0.9-0.1,1.3c-0.1,2-0.5,3.8-1.3,5.5c-0.8,1.7-1.8,3.1-3.1,4.2c-1.3,1.1-2.8,2-4.6,2.7
				C111.2-204.7,109.3-204.4,107.3-204.4z"/>
			<path class="st0" d="M107.3-203.1c-1.7,0-3.5-0.3-5.2-0.8c-1.7-0.5-3.3-1.3-4.7-2.2c-1.4-1-2.7-2.2-3.7-3.7c-1-1.5-1.7-3.1-2.1-5
				c-0.2-0.9-0.3-1.8-0.3-2.8c0-0.9,0-1.8,0-2.7v-22.7c0-1.1,0.9-2,2-2h7c1.1,0,2,0.9,2,2c0,1.1-0.9,2-2,2h-5v20.6
				c0,0.9,0,1.7,0,2.5c0,0.7,0.1,1.5,0.2,2.2c0.2,1.3,0.7,2.4,1.4,3.4c0.7,1,1.6,1.9,2.7,2.7c1.1,0.7,2.2,1.3,3.5,1.7
				c2.8,0.8,6.1,0.8,8.7-0.2c1.4-0.5,2.6-1.2,3.6-2.1c1-0.9,1.8-2,2.4-3.3c0.6-1.3,1-2.8,1-4.5c0-0.4,0.1-0.8,0.1-1.1v-21.9h-5
				c-1.1,0-2-0.9-2-2c0-1.1,0.9-2,2-2h7c1.1,0,2,0.9,2,2v23.9c0,0.5,0,1-0.1,1.4c-0.1,2-0.6,4-1.4,5.8c-0.8,1.8-2,3.4-3.4,4.6
				c-1.4,1.2-3.1,2.2-5,2.9C111.5-203.5,109.5-203.1,107.3-203.1z"/>
		</g>
		<circle class="st0" cx="111.8" cy="-229.3" r="1.1"/>
		<circle class="st0" cx="100.5" cy="-223.6" r="1.1"/>
		<circle class="st0" cx="114.2" cy="-214.5" r="1.1"/>
		<circle class="st0" cx="107.3" cy="-242.9" r="1.1"/>
		<path class="st0" d="M85.7-211.7c-0.1,0-0.1,0-0.2-0.1L70-242.5c0-0.1,0-0.2,0.1-0.3c0.1,0,0.2,0,0.3,0.1L85.9-212
			C85.9-211.9,85.9-211.8,85.7-211.7C85.7-211.7,85.7-211.7,85.7-211.7z"/>
		<path class="st0" d="M70.1-205.2c-0.1,0-0.2,0-0.2-0.1c0-0.1,0-0.2,0.1-0.3l15.6-6.5c0.1,0,0.2,0,0.3,0.1c0,0.1,0,0.2-0.1,0.3
			L70.1-205.2C70.2-205.2,70.2-205.2,70.1-205.2z"/>
		<path class="st0" d="M85.2-205.2c-0.1,0-0.2,0-0.2-0.1l-15.1-37.2c0-0.1,0-0.2,0.1-0.3c0.1,0,0.2,0,0.3,0.1l15.1,37.2
			C85.5-205.4,85.4-205.3,85.2-205.2C85.3-205.2,85.3-205.2,85.2-205.2z"/>
		<path class="st0" d="M76.4-205.2c-0.1,0-0.2-0.1-0.2-0.2v-37.2c0-0.1,0.1-0.2,0.2-0.2c0.1,0,0.2,0.1,0.2,0.2v37.2
			C76.6-205.3,76.6-205.2,76.4-205.2z"/>
		<path class="st0" d="M85.7-211.7c0,0-0.1,0-0.1,0L70-224.5c-0.1-0.1-0.1-0.2,0-0.3c0.1-0.1,0.2-0.1,0.3,0l15.6,12.7
			c0.1,0.1,0.1,0.2,0,0.3C85.8-211.7,85.7-211.7,85.7-211.7z"/>
		<path class="st0" d="M85.7-211.7c-0.1,0-0.2-0.1-0.2-0.1l-9.2-30.7c0-0.1,0-0.2,0.1-0.2c0.1,0,0.2,0,0.2,0.1l9.2,30.7
			C85.9-211.9,85.9-211.8,85.7-211.7C85.7-211.7,85.7-211.7,85.7-211.7z"/>
		<path class="st0" d="M70.1-205.2C70.1-205.2,70.1-205.2,70.1-205.2c-0.1,0-0.2-0.1-0.2-0.2l6.3-37.2c0-0.1,0.1-0.2,0.2-0.2
			c0.1,0,0.2,0.1,0.2,0.2l-6.3,37.2C70.3-205.3,70.2-205.2,70.1-205.2z"/>
		<g>
			<path class="st0" d="M85.7-204.6H70.1c-0.4,0-0.8-0.4-0.8-0.8v-37.2c0-0.4,0.4-0.8,0.8-0.8s0.8,0.4,0.8,0.8v36.4h14v-5.7
				c0-0.4,0.4-0.8,0.8-0.8c0.4,0,0.8,0.4,0.8,0.8v6.5C86.5-205,86.1-204.6,85.7-204.6z"/>
			<path class="st0" d="M85.7-203.4H70.1c-1.1,0-2-0.9-2-2v-37.2c0-1.1,0.9-2,2-2c1.1,0,2,0.9,2,2v35.1h11.5v-4.4c0-1.1,0.9-2,2-2
				c1.1,0,2,0.9,2,2v6.5C87.7-204.3,86.8-203.4,85.7-203.4z"/>
		</g>
		<circle class="st0" cx="76.4" cy="-242.6" r="1.1"/>
		<circle class="st0" cx="76.4" cy="-219.4" r="1.1"/>
		<circle class="st0" cx="76.4" cy="-208.1" r="1.1"/>
		<circle class="st0" cx="73.8" cy="-227.3" r="1.1"/>
		<circle class="st0" cx="83" cy="-210.9" r="1.1"/>
	</g>
</g>
<g>
	<path class="st0" d="M36,92.4L32.3,87c-0.6-0.9-1.9-1.1-2.8-0.5c-0.9,0.6-1.2,1.9-0.5,2.8l2.6,3.8c-1.7,1.1-3.2,1.9-4.5,2.3
		c-1.8,0.6-3.6,0.9-5.6,0.9c-2.3,0-4.6-0.5-6.7-1.3c-2.1-0.9-4-2.1-5.6-3.7c-1.6-1.5-2.8-3.3-3.8-5.4c-0.9-2-1.4-4.2-1.4-6.5
		c0-2.4,0.5-4.6,1.4-6.6c0.9-2.1,2.2-3.9,3.8-5.4c1.6-1.5,3.5-2.8,5.6-3.7c3.8-1.6,8-1.8,12.1-0.5c1.4,0.4,2.9,1.2,4.6,2.3l-2.5,3.8
		c-0.6,0.9-0.4,2.2,0.5,2.8c0.9,0.6,2.2,0.3,2.8-0.5l3.6-5.4c0.6-0.9,0.4-2.1-0.4-2.7c-2.6-2-5.1-3.4-7.3-4.1
		c-5.1-1.6-10.2-1.4-14.9,0.6c-2.6,1.1-4.9,2.6-6.8,4.5c-2,1.9-3.5,4.1-4.7,6.7C0.6,73.6,0,76.4,0,79.3c0,2.9,0.6,5.6,1.8,8.2
		c1.2,2.5,2.7,4.8,4.7,6.6c1.9,1.9,4.2,3.4,6.8,4.5c2.6,1.1,5.4,1.7,8.2,1.7c2.3,0,4.6-0.4,6.8-1.1c2.2-0.7,4.6-2.1,7.2-4
		C36.4,94.5,36.6,93.3,36,92.4z"/>
	<path class="st0" d="M116.4,71.3c-1.1-2.5-2.7-4.7-4.7-6.5c-2-1.8-4.4-3.2-7.1-4.1c-2.7-0.9-5.6-1.4-8.7-1.4h-8.4c-1.1,0-2,0.9-2,2
		c0,1.1,0.9,2,2,2h8.4c2.7,0,5.1,0.4,7.4,1.2c2.2,0.7,4.1,1.8,5.7,3.3c1.6,1.4,2.8,3.1,3.7,5.1c0.9,2,1.3,4.4,1.3,7
		c0,2.5-0.5,4.8-1.4,6.8c-0.9,2-2.2,3.7-3.8,5.1c-1.6,1.4-3.5,2.5-5.7,3.3c-2.2,0.8-4.7,1.2-7.3,1.2h-8.4c-1.1,0-2,0.9-2,2
		c0,1.1,0.9,2,2,2h8.4c3.1,0,6-0.5,8.6-1.4c2.7-0.9,5-2.3,7-4c2-1.8,3.6-3.9,4.8-6.5c1.1-2.5,1.7-5.4,1.7-8.5
		C118.1,76.7,117.5,73.8,116.4,71.3z"/>
	<g>
		<path class="st0" d="M147.5,61.3c0-1.1-0.9-2-2-2h-20.8c-1.1,0-2,0.9-2,2v36.9c0,1.1,0.9,2,2,2h20.8c1.1,0,2-0.9,2-2v-6.5
			c0-1.1-0.9-2-2-2c-1.1,0-2,0.9-2,2v4.5h-16.8V63.4h16.8v4.6c0,1.1,0.9,2,2,2c1.1,0,2-0.9,2-2V61.3z"/>
		<path class="st0" d="M145.1,73c-1.1,0-2,0.9-2,2v6.5c0,1.1,0.9,2,2,2s2-0.9,2-2V75C147.1,73.9,146.2,73,145.1,73z"/>
	</g>
	<path class="st0" d="M183.8,97.1l-9.7-13.8c1.6-0.8,2.9-1.9,4-3.2c1.7-2.1,2.5-4.7,2.5-7.9c0-2.4-0.4-4.5-1.3-6.1
		c-0.8-1.7-2-3-3.5-4.1c-1.4-1-3-1.7-4.9-2.1c-1.7-0.4-3.6-0.6-5.5-0.6h-8.1c-1.1,0-2,0.9-2,2v36.9c0,1.1,0.9,2,2,2c1.1,0,2-0.9,2-2
		V63.4h6.1c1.7,0,3.2,0.2,4.7,0.5c1.3,0.3,2.5,0.8,3.4,1.5c0.9,0.6,1.7,1.5,2.2,2.6c0.5,1.1,0.8,2.5,0.8,4.3c0,2.2-0.6,4-1.6,5.4
		c-1.1,1.4-2.6,2.4-4.5,2.9c-0.6,0.2-1.1,0.6-1.3,1.3c-0.2,0.6-0.1,1.3,0.2,1.8l11.1,15.9c0.4,0.5,1,0.9,1.6,0.9
		c0.4,0,0.8-0.1,1.2-0.4C184.2,99.3,184.5,98,183.8,97.1z"/>
	<path class="st0" d="M80.2,71c-1.1-2.5-2.7-4.8-4.6-6.7c-1.9-1.9-4.2-3.4-6.8-4.5c-2.6-1.1-5.4-1.7-8.2-1.7c-2.9,0-5.7,0.6-8.3,1.7
		c-2.6,1.1-4.9,2.6-6.8,4.6c-1.9,1.9-3.5,4.2-4.6,6.7c-1.1,2.6-1.7,5.3-1.7,8.1c0,2.9,0.6,5.6,1.7,8.2c1.1,2.5,2.7,4.8,4.6,6.7
		c1.9,1.9,4.2,3.4,6.8,4.5c2.6,1.1,5.4,1.7,8.3,1.7c2.9,0,5.6-0.6,8.2-1.7c2.6-1.1,4.9-2.6,6.8-4.5c1.9-1.9,3.5-4.1,4.6-6.7
		c1.1-2.6,1.7-5.3,1.7-8.2C81.9,76.4,81.3,73.6,80.2,71z M60.6,96.2c-2.4,0-4.6-0.4-6.7-1.3c-2.1-0.9-4-2.1-5.5-3.7
		c-1.6-1.5-2.8-3.4-3.8-5.4c-0.9-2-1.4-4.2-1.4-6.6c0-2.3,0.5-4.5,1.4-6.5c0.9-2.1,2.2-3.9,3.7-5.5c1.6-1.6,3.4-2.8,5.5-3.7
		c2.1-0.9,4.4-1.3,6.7-1.3c2.3,0,4.6,0.5,6.7,1.3c2.1,0.9,4,2.1,5.5,3.7c1.6,1.5,2.8,3.4,3.7,5.4c0.9,2,1.4,4.2,1.4,6.6
		c0,2.3-0.5,4.5-1.4,6.6c-0.9,2.1-2.2,3.9-3.7,5.4c-1.6,1.5-3.4,2.8-5.5,3.7C65.2,95.8,62.9,96.2,60.6,96.2z"/>
	<path class="st0" d="M149,21.6c-0.7-1.2-1.6-2.3-2.7-3.3c0.8-1.6,1.2-3.4,1.2-5.4c0-2.2-0.4-4.1-1.1-5.7c-0.7-1.7-1.8-3.1-3.1-4.1
		c-1.3-1-2.8-1.8-4.6-2.3C137,0.2,135.2,0,133.3,0h-9.4c-1.1,0-2,0.9-2,2s0.9,2,2,2h9.4c1.5,0,3,0.2,4.3,0.6
		c1.2,0.3,2.3,0.9,3.2,1.6c0.8,0.7,1.5,1.5,2,2.6c0.5,1.1,0.7,2.5,0.7,4.1c0,1.9-0.5,3.5-1.4,4.7c-0.4,0.4-0.5,1-0.4,1.6
		c0.1,0.6,0.4,1.1,0.9,1.4c1.2,0.8,2.2,1.8,2.9,3.1c0.7,1.2,1,2.6,1,4.1c0,1.6-0.3,3-0.9,4.1c-0.6,1.1-1.4,2.1-2.4,2.8
		c-1.1,0.8-2.3,1.3-3.6,1.7c-1.4,0.4-2.9,0.6-4.3,0.6h-11.3c-1.1,0-2,0.9-2,2c0,1.1,0.9,2,2,2h11.3c1.9,0,3.7-0.2,5.4-0.7
		c1.8-0.5,3.5-1.3,4.9-2.3c1.5-1.1,2.7-2.5,3.6-4.2c0.9-1.7,1.4-3.7,1.4-6C150.5,25.5,150,23.4,149,21.6z"/>
	<g>
		<path class="st0" d="M114,2c0-1.1-0.9-2-2-2H91.1c-1.1,0-2,0.9-2,2v36.9c0,1.1,0.9,2,2,2H112c1.1,0,2-0.9,2-2v-6.5
			c0-1.1-0.9-2-2-2c-1.1,0-2,0.9-2,2v4.5H93.1V4h16.8v4.6c0,1.1,0.9,2,2,2c1.1,0,2-0.9,2-2V2z"/>
		<path class="st0" d="M111.5,13.7c-1.1,0-2,0.9-2,2v6.5c0,1.1,0.9,2,2,2c1.1,0,2-0.9,2-2v-6.5C113.5,14.6,112.6,13.7,111.5,13.7z"
			/>
	</g>
	<path class="st0" d="M81.9,0.7c-0.4-0.5-1-0.7-1.6-0.7h-7c-1.1,0-2,0.9-2,2c0,1.1,0.9,2,2,2h4.5l-7,32.9h-1.4l-9.6-23.2
		c-0.3-0.8-1-1.2-1.9-1.2c-0.8,0-1.5,0.5-1.9,1.2l-9.7,23.2h-1.4L38.2,4h4.6c1.1,0,2-0.9,2-2c0-1.1-0.9-2-2-2h-7.1
		c-0.6,0-1.2,0.3-1.6,0.7c-0.4,0.5-0.5,1.1-0.4,1.7l7.8,36.9c0.2,0.9,1,1.6,2,1.6h4.3c0.8,0,1.5-0.5,1.9-1.2L58,19.8l8.3,19.9
		c0.3,0.8,1,1.2,1.9,1.2h4.3c0.9,0,1.8-0.7,2-1.6l7.8-36.9C82.4,1.8,82.2,1.2,81.9,0.7z"/>
	<g>
		<path class="st0" d="M141.9,158.6h-11.4c-0.4,0-0.8-0.4-0.8-0.8c0-0.4,0.4-0.8,0.8-0.8h11.4c1.6,0,3.2-0.2,4.7-0.6
			c1.5-0.4,2.9-1.1,4-1.9c1.2-0.8,2.1-1.9,2.8-3.2c0.7-1.3,1-2.9,1-4.7c0-1.7-0.4-3.3-1.2-4.7c-0.8-1.4-1.9-2.6-3.4-3.5
			c-0.2-0.1-0.3-0.3-0.4-0.5c0-0.2,0-0.5,0.2-0.6c1.1-1.4,1.7-3.3,1.7-5.5c0-1.8-0.3-3.4-0.8-4.6c-0.6-1.3-1.3-2.3-2.3-3.1
			c-1-0.8-2.2-1.4-3.6-1.8c-1.4-0.4-3-0.6-4.6-0.6h-9.5c-0.4,0-0.8-0.4-0.8-0.8c0-0.4,0.4-0.8,0.8-0.8h9.5c1.8,0,3.5,0.2,5.1,0.7
			c1.6,0.4,3,1.1,4.2,2.1c1.2,0.9,2.1,2.2,2.8,3.7c0.7,1.5,1,3.3,1,5.3c0,2.2-0.5,4.2-1.6,5.8c1.3,1,2.4,2.2,3.2,3.6
			c0.9,1.7,1.4,3.5,1.4,5.5c0,2.1-0.4,3.9-1.2,5.5c-0.8,1.5-1.9,2.8-3.3,3.8c-1.3,1-2.9,1.7-4.5,2.2
			C145.4,158.3,143.6,158.6,141.9,158.6z"/>
		<path class="st0" d="M141.9,159.8h-11.4c-1.1,0-2-0.9-2-2c0-1.1,0.9-2,2-2h11.4c1.5,0,3-0.2,4.4-0.6c1.4-0.4,2.6-1,3.7-1.7
			c1-0.7,1.8-1.7,2.4-2.8c0.6-1.1,0.9-2.5,0.9-4.2c0-1.5-0.4-2.9-1-4.1c-0.7-1.2-1.7-2.3-2.9-3.1c-0.5-0.3-0.8-0.8-0.9-1.4
			c-0.1-0.6,0.1-1.1,0.4-1.6c1-1.2,1.5-2.8,1.5-4.7c0-1.6-0.2-3-0.7-4.1c-0.5-1.1-1.1-1.9-2-2.6c-0.9-0.7-2-1.2-3.2-1.6
			c-1.3-0.4-2.8-0.6-4.3-0.6h-9.5c-1.1,0-2-0.9-2-2c0-1.1,0.9-2,2-2h9.5c1.9,0,3.7,0.2,5.4,0.7c1.8,0.5,3.3,1.3,4.6,2.3
			c1.4,1.1,2.4,2.5,3.2,4.2c0.7,1.6,1.1,3.6,1.1,5.8c0,2-0.4,3.9-1.2,5.5c1.1,0.9,2,2.1,2.7,3.3c1,1.8,1.6,3.9,1.6,6.1
			c0,2.3-0.5,4.3-1.4,6c-0.9,1.7-2.1,3.1-3.6,4.2c-1.5,1.1-3.1,1.8-4.9,2.3C145.6,159.5,143.8,159.8,141.9,159.8z"/>
	</g>
	<path class="st0" d="M48.5,160.3c-2.9,0-5.7-0.6-8.3-1.7c-2.6-1.1-4.9-2.6-6.8-4.5c-2-1.9-3.5-4.1-4.7-6.7
		c-1.2-2.6-1.8-5.4-1.8-8.3c0-3,0.6-5.7,1.7-8.3c1.1-2.6,2.7-4.8,4.7-6.7c2-1.9,4.3-3.4,6.9-4.5c4.7-2,9.9-2.2,15-0.6
		c2.3,0.7,4.8,2.1,7.4,4.1c0.8,0.7,1,1.9,0.4,2.7l-3.7,5.4c-0.6,0.9-1.9,1.2-2.8,0.5c-0.4-0.3-0.8-0.8-0.9-1.3
		c-0.1-0.5,0-1.1,0.3-1.5l2.6-3.8c-1.7-1.1-3.2-1.9-4.6-2.4c-4.2-1.3-8.4-1.2-12.2,0.5c-2.1,0.9-4,2.2-5.7,3.7
		c-1.6,1.5-2.9,3.4-3.8,5.5c-0.9,2.1-1.4,4.3-1.4,6.7c0,2.3,0.5,4.5,1.4,6.6c0.9,2.1,2.2,3.9,3.8,5.4c1.6,1.5,3.5,2.8,5.6,3.7
		c2.1,0.9,4.4,1.3,6.7,1.3c1.9,0,3.8-0.3,5.6-0.9c1.4-0.4,2.9-1.2,4.6-2.3l-2.6-3.8c-0.6-0.9-0.4-2.2,0.5-2.8
		c0.9-0.6,2.2-0.4,2.8,0.5l3.7,5.5c0.6,0.9,0.4,2.1-0.5,2.8c-2.6,1.9-5.1,3.3-7.3,4C53.2,160,50.9,160.3,48.5,160.3z"/>
	<path class="st0" d="M107.3,160.2c-1.7,0-3.5-0.3-5.2-0.8c-1.7-0.5-3.3-1.3-4.7-2.2c-1.4-1-2.7-2.2-3.7-3.7c-1-1.5-1.7-3.1-2.1-5
		c-0.2-0.9-0.3-1.8-0.3-2.8c0-0.9,0-1.8,0-2.7v-22.7c0-1.1,0.9-2,2-2h7c1.1,0,2,0.9,2,2c0,1.1-0.9,2-2,2h-5v20.6c0,0.9,0,1.7,0,2.5
		c0,0.7,0.1,1.5,0.2,2.2c0.2,1.3,0.7,2.4,1.4,3.4c0.7,1,1.6,1.9,2.7,2.7c1.1,0.7,2.2,1.3,3.5,1.7c2.8,0.8,6.1,0.8,8.7-0.2
		c1.4-0.5,2.6-1.2,3.6-2.1c1-0.9,1.8-2,2.4-3.3c0.6-1.3,1-2.8,1-4.5c0-0.4,0.1-0.8,0.1-1.1v-21.9h-5c-1.1,0-2-0.9-2-2
		c0-1.1,0.9-2,2-2h7c1.1,0,2,0.9,2,2v23.9c0,0.5,0,1-0.1,1.4c-0.1,2-0.6,4-1.4,5.8c-0.8,1.8-2,3.4-3.4,4.6c-1.4,1.2-3.1,2.2-5,2.9
		C111.5,159.9,109.5,160.2,107.3,160.2z"/>
	<path class="st0" d="M85.7,159.9H70.1c-1.1,0-2-0.9-2-2v-37.2c0-1.1,0.9-2,2-2c1.1,0,2,0.9,2,2v35.1h11.5v-4.4c0-1.1,0.9-2,2-2
		c1.1,0,2,0.9,2,2v6.5C87.7,159,86.8,159.9,85.7,159.9z"/>
</g>
</svg>
